solid 
 facet normal  7.071068e-01 -7.071068e-01  0.000000e+00
   outer loop
     vertex  4.000000e-01 -1.250000e-01  0.000000e+00
     vertex  5.000000e-01 -2.500000e-02  0.000000e+00
     vertex  5.000000e-01 -2.500000e-02  1.000000e-01
   endloop
 endfacet
 facet normal  7.071068e-01 -7.071068e-01  0.000000e+00
   outer loop
     vertex  4.000000e-01 -1.250000e-01  0.000000e+00
     vertex  5.000000e-01 -2.500000e-02  1.000000e-01
     vertex  4.000000e-01 -1.250000e-01  1.000000e-01
   endloop
 endfacet
 facet normal -2.425356e-01 -9.701425e-01  0.000000e+00
   outer loop
     vertex  0.000000e+00  0.000000e+00  0.000000e+00
     vertex  1.000000e-01 -2.500000e-02  0.000000e+00
     vertex  1.000000e-01 -2.500000e-02  1.000000e-01
   endloop
 endfacet
 facet normal -2.425356e-01 -9.701425e-01  0.000000e+00
   outer loop
     vertex  0.000000e+00  0.000000e+00  0.000000e+00
     vertex  1.000000e-01 -2.500000e-02  1.000000e-01
     vertex  0.000000e+00  0.000000e+00  1.000000e-01
   endloop
 endfacet
 facet normal  0.000000e+00 -1.000000e+00  0.000000e+00
   outer loop
     vertex  5.000000e-01 -2.500000e-02  0.000000e+00
     vertex  6.000000e-01 -2.500000e-02  0.000000e+00
     vertex  6.000000e-01 -2.500000e-02  1.000000e-01
   endloop
 endfacet
 facet normal  0.000000e+00 -1.000000e+00  0.000000e+00
   outer loop
     vertex  5.000000e-01 -2.500000e-02  0.000000e+00
     vertex  6.000000e-01 -2.500000e-02  1.000000e-01
     vertex  5.000000e-01 -2.500000e-02  1.000000e-01
   endloop
 endfacet
 facet normal  7.071068e-01 -7.071068e-01  0.000000e+00
   outer loop
     vertex  1.000000e-01 -2.500000e-02  0.000000e+00
     vertex  2.000000e-01  7.500000e-02  0.000000e+00
     vertex  2.000000e-01  7.500000e-02  1.000000e-01
   endloop
 endfacet
 facet normal  7.071068e-01 -7.071068e-01  0.000000e+00
   outer loop
     vertex  1.000000e-01 -2.500000e-02  0.000000e+00
     vertex  2.000000e-01  7.500000e-02  1.000000e-01
     vertex  1.000000e-01 -2.500000e-02  1.000000e-01
   endloop
 endfacet
 facet normal -7.071068e-01 -7.071068e-01  0.000000e+00
   outer loop
     vertex  3.000000e-01 -2.500000e-02  0.000000e+00
     vertex  4.000000e-01 -1.250000e-01  0.000000e+00
     vertex  4.000000e-01 -1.250000e-01  1.000000e-01
   endloop
 endfacet
 facet normal -7.071068e-01 -7.071068e-01  0.000000e+00
   outer loop
     vertex  3.000000e-01 -2.500000e-02  0.000000e+00
     vertex  4.000000e-01 -1.250000e-01  1.000000e-01
     vertex  3.000000e-01 -2.500000e-02  1.000000e-01
   endloop
 endfacet
 facet normal -7.071068e-01 -7.071068e-01  0.000000e+00
   outer loop
     vertex  2.000000e-01  7.500000e-02  0.000000e+00
     vertex  3.000000e-01 -2.500000e-02  0.000000e+00
     vertex  3.000000e-01 -2.500000e-02  1.000000e-01
   endloop
 endfacet
 facet normal -7.071068e-01 -7.071068e-01  0.000000e+00
   outer loop
     vertex  2.000000e-01  7.500000e-02  0.000000e+00
     vertex  3.000000e-01 -2.500000e-02  1.000000e-01
     vertex  2.000000e-01  7.500000e-02  1.000000e-01
   endloop
 endfacet
 facet normal  0.000000e+00  1.000000e+00  0.000000e+00
   outer loop
     vertex  6.000000e-01  7.500000e-02  0.000000e+00
     vertex  5.000000e-01  7.500000e-02  0.000000e+00
     vertex  5.000000e-01  7.500000e-02  1.000000e-01
   endloop
 endfacet
 facet normal  0.000000e+00  1.000000e+00 -0.000000e+00
   outer loop
     vertex  6.000000e-01  7.500000e-02  0.000000e+00
     vertex  5.000000e-01  7.500000e-02  1.000000e-01
     vertex  6.000000e-01  7.500000e-02  1.000000e-01
   endloop
 endfacet
 facet normal  7.071068e-01  7.071068e-01  0.000000e+00
   outer loop
     vertex  4.000000e-01 -2.500000e-02  0.000000e+00
     vertex  3.000000e-01  7.500000e-02  0.000000e+00
     vertex  3.000000e-01  7.500000e-02  1.000000e-01
   endloop
 endfacet
 facet normal  7.071068e-01  7.071068e-01 -0.000000e+00
   outer loop
     vertex  4.000000e-01 -2.500000e-02  0.000000e+00
     vertex  3.000000e-01  7.500000e-02  1.000000e-01
     vertex  4.000000e-01 -2.500000e-02  1.000000e-01
   endloop
 endfacet
 facet normal -2.425356e-01  9.701425e-01  0.000000e+00
   outer loop
     vertex  1.000000e-01  7.500000e-02  0.000000e+00
     vertex  0.000000e+00  5.000000e-02  0.000000e+00
     vertex  0.000000e+00  5.000000e-02  1.000000e-01
   endloop
 endfacet
 facet normal -2.425356e-01  9.701425e-01  0.000000e+00
   outer loop
     vertex  1.000000e-01  7.500000e-02  0.000000e+00
     vertex  0.000000e+00  5.000000e-02  1.000000e-01
     vertex  1.000000e-01  7.500000e-02  1.000000e-01
   endloop
 endfacet
 facet normal -7.071068e-01  7.071068e-01  0.000000e+00
   outer loop
     vertex  5.000000e-01  7.500000e-02  0.000000e+00
     vertex  4.000000e-01 -2.500000e-02  0.000000e+00
     vertex  4.000000e-01 -2.500000e-02  1.000000e-01
   endloop
 endfacet
 facet normal -7.071068e-01  7.071068e-01  0.000000e+00
   outer loop
     vertex  5.000000e-01  7.500000e-02  0.000000e+00
     vertex  4.000000e-01 -2.500000e-02  1.000000e-01
     vertex  5.000000e-01  7.500000e-02  1.000000e-01
   endloop
 endfacet
 facet normal -7.071068e-01  7.071068e-01  0.000000e+00
   outer loop
     vertex  2.000000e-01  1.750000e-01  0.000000e+00
     vertex  1.000000e-01  7.500000e-02  0.000000e+00
     vertex  1.000000e-01  7.500000e-02  1.000000e-01
   endloop
 endfacet
 facet normal -7.071068e-01  7.071068e-01  0.000000e+00
   outer loop
     vertex  2.000000e-01  1.750000e-01  0.000000e+00
     vertex  1.000000e-01  7.500000e-02  1.000000e-01
     vertex  2.000000e-01  1.750000e-01  1.000000e-01
   endloop
 endfacet
 facet normal  7.071068e-01  7.071068e-01  0.000000e+00
   outer loop
     vertex  3.000000e-01  7.500000e-02  0.000000e+00
     vertex  2.000000e-01  1.750000e-01  0.000000e+00
     vertex  2.000000e-01  1.750000e-01  1.000000e-01
   endloop
 endfacet
 facet normal  7.071068e-01  7.071068e-01 -0.000000e+00
   outer loop
     vertex  3.000000e-01  7.500000e-02  0.000000e+00
     vertex  2.000000e-01  1.750000e-01  1.000000e-01
     vertex  3.000000e-01  7.500000e-02  1.000000e-01
   endloop
 endfacet
 facet normal -0.000000e+00  0.000000e+00  1.000000e+00
   outer loop
     vertex  5.000000e-01  7.500000e-02  1.000000e-01
     vertex  6.000000e-01 -2.500000e-02  1.000000e-01
     vertex  6.000000e-01  7.500000e-02  1.000000e-01
   endloop
 endfacet
 facet normal  0.000000e+00  0.000000e+00  1.000000e+00
   outer loop
     vertex  5.000000e-01  7.500000e-02  1.000000e-01
     vertex  5.000000e-01 -2.500000e-02  1.000000e-01
     vertex  6.000000e-01 -2.500000e-02  1.000000e-01
   endloop
 endfacet
 facet normal -0.000000e+00  0.000000e+00  1.000000e+00
   outer loop
     vertex  4.000000e-01 -2.500000e-02  1.000000e-01
     vertex  4.000000e-01 -1.250000e-01  1.000000e-01
     vertex  5.000000e-01 -2.500000e-02  1.000000e-01
   endloop
 endfacet
 facet normal  0.000000e+00  0.000000e+00  1.000000e+00
   outer loop
     vertex  4.000000e-01 -2.500000e-02  1.000000e-01
     vertex  5.000000e-01 -2.500000e-02  1.000000e-01
     vertex  5.000000e-01  7.500000e-02  1.000000e-01
   endloop
 endfacet
 facet normal -0.000000e+00  0.000000e+00  1.000000e+00
   outer loop
     vertex  3.000000e-01 -2.500000e-02  1.000000e-01
     vertex  4.000000e-01 -1.250000e-01  1.000000e-01
     vertex  4.000000e-01 -2.500000e-02  1.000000e-01
   endloop
 endfacet
 facet normal  0.000000e+00  0.000000e+00  1.000000e+00
   outer loop
     vertex  3.000000e-01  7.500000e-02  1.000000e-01
     vertex  3.000000e-01 -2.500000e-02  1.000000e-01
     vertex  4.000000e-01 -2.500000e-02  1.000000e-01
   endloop
 endfacet
 facet normal -0.000000e+00  0.000000e+00  1.000000e+00
   outer loop
     vertex  2.000000e-01  7.500000e-02  1.000000e-01
     vertex  3.000000e-01 -2.500000e-02  1.000000e-01
     vertex  3.000000e-01  7.500000e-02  1.000000e-01
   endloop
 endfacet
 facet normal  0.000000e+00  0.000000e+00  1.000000e+00
   outer loop
     vertex  2.000000e-01  1.750000e-01  1.000000e-01
     vertex  2.000000e-01  7.500000e-02  1.000000e-01
     vertex  3.000000e-01  7.500000e-02  1.000000e-01
   endloop
 endfacet
 facet normal -0.000000e+00  0.000000e+00  1.000000e+00
   outer loop
     vertex  1.000000e-01  7.500000e-02  1.000000e-01
     vertex  1.000000e-01 -2.500000e-02  1.000000e-01
     vertex  2.000000e-01  7.500000e-02  1.000000e-01
   endloop
 endfacet
 facet normal  0.000000e+00  0.000000e+00  1.000000e+00
   outer loop
     vertex  1.000000e-01  7.500000e-02  1.000000e-01
     vertex  2.000000e-01  7.500000e-02  1.000000e-01
     vertex  2.000000e-01  1.750000e-01  1.000000e-01
   endloop
 endfacet
 facet normal  0.000000e+00  0.000000e+00  1.000000e+00
   outer loop
     vertex  0.000000e+00  5.000000e-02  1.000000e-01
     vertex  0.000000e+00  0.000000e+00  1.000000e-01
     vertex  1.000000e-01 -2.500000e-02  1.000000e-01
   endloop
 endfacet
 facet normal -0.000000e+00  0.000000e+00  1.000000e+00
   outer loop
     vertex  0.000000e+00  5.000000e-02  1.000000e-01
     vertex  1.000000e-01 -2.500000e-02  1.000000e-01
     vertex  1.000000e-01  7.500000e-02  1.000000e-01
   endloop
 endfacet
 facet normal  0.000000e+00  0.000000e+00 -1.000000e+00
   outer loop
     vertex  5.000000e-01  7.500000e-02  0.000000e+00
     vertex  6.000000e-01  7.500000e-02  0.000000e+00
     vertex  6.000000e-01 -2.500000e-02  0.000000e+00
   endloop
 endfacet
 facet normal  0.000000e+00  0.000000e+00 -1.000000e+00
   outer loop
     vertex  5.000000e-01  7.500000e-02  0.000000e+00
     vertex  6.000000e-01 -2.500000e-02  0.000000e+00
     vertex  5.000000e-01 -2.500000e-02  0.000000e+00
   endloop
 endfacet
 facet normal  0.000000e+00  0.000000e+00 -1.000000e+00
   outer loop
     vertex  4.000000e-01 -2.500000e-02  0.000000e+00
     vertex  5.000000e-01 -2.500000e-02  0.000000e+00
     vertex  4.000000e-01 -1.250000e-01  0.000000e+00
   endloop
 endfacet
 facet normal  0.000000e+00  0.000000e+00 -1.000000e+00
   outer loop
     vertex  4.000000e-01 -2.500000e-02  0.000000e+00
     vertex  5.000000e-01  7.500000e-02  0.000000e+00
     vertex  5.000000e-01 -2.500000e-02  0.000000e+00
   endloop
 endfacet
 facet normal  0.000000e+00  0.000000e+00 -1.000000e+00
   outer loop
     vertex  3.000000e-01 -2.500000e-02  0.000000e+00
     vertex  4.000000e-01 -2.500000e-02  0.000000e+00
     vertex  4.000000e-01 -1.250000e-01  0.000000e+00
   endloop
 endfacet
 facet normal  0.000000e+00  0.000000e+00 -1.000000e+00
   outer loop
     vertex  3.000000e-01  7.500000e-02  0.000000e+00
     vertex  4.000000e-01 -2.500000e-02  0.000000e+00
     vertex  3.000000e-01 -2.500000e-02  0.000000e+00
   endloop
 endfacet
 facet normal  0.000000e+00  0.000000e+00 -1.000000e+00
   outer loop
     vertex  2.000000e-01  7.500000e-02  0.000000e+00
     vertex  3.000000e-01  7.500000e-02  0.000000e+00
     vertex  3.000000e-01 -2.500000e-02  0.000000e+00
   endloop
 endfacet
 facet normal  0.000000e+00  0.000000e+00 -1.000000e+00
   outer loop
     vertex  2.000000e-01  1.750000e-01  0.000000e+00
     vertex  3.000000e-01  7.500000e-02  0.000000e+00
     vertex  2.000000e-01  7.500000e-02  0.000000e+00
   endloop
 endfacet
 facet normal  0.000000e+00  0.000000e+00 -1.000000e+00
   outer loop
     vertex  1.000000e-01  7.500000e-02  0.000000e+00
     vertex  2.000000e-01  7.500000e-02  0.000000e+00
     vertex  1.000000e-01 -2.500000e-02  0.000000e+00
   endloop
 endfacet
 facet normal  0.000000e+00  0.000000e+00 -1.000000e+00
   outer loop
     vertex  1.000000e-01  7.500000e-02  0.000000e+00
     vertex  2.000000e-01  1.750000e-01  0.000000e+00
     vertex  2.000000e-01  7.500000e-02  0.000000e+00
   endloop
 endfacet
 facet normal  0.000000e+00  0.000000e+00 -1.000000e+00
   outer loop
     vertex  0.000000e+00  5.000000e-02  0.000000e+00
     vertex  1.000000e-01 -2.500000e-02  0.000000e+00
     vertex  0.000000e+00  0.000000e+00  0.000000e+00
   endloop
 endfacet
 facet normal  0.000000e+00  0.000000e+00 -1.000000e+00
   outer loop
     vertex  0.000000e+00  5.000000e-02  0.000000e+00
     vertex  1.000000e-01  7.500000e-02  0.000000e+00
     vertex  1.000000e-01 -2.500000e-02  0.000000e+00
   endloop
 endfacet
endsolid
