v 0.0931664 0.0706639 0.0750316
v 0.0935093 0.0733773 0.0745734
v 0.0936274 0.0734068 0.0807234
v 0.0932024 0.0705212 0.0812939
v 0.0932076 0.0705017 0.0876533
v 0.0914969 0.0706788 0.0876269
v 0.0892775 0.0723194 0.0843141
v 0.0890661 0.0722665 0.0803311
v 0.0892246 0.0723062 0.0737288
v 0.0929308 0.0732327 0.0862798
v 0.0915558 0.072889 0.0891196
v 0.090132 0.072533 0.0869812
v 0.0909843 0.0727461 0.0737231
v 0.0924196 0.0731049 0.0737315
l 1 2
l 2 3
l 3 4
l 4 1
l 1 4
l 4 5
l 5 6
l 6 7
l 7 8
l 8 9
l 9 1
l 5 10
l 10 11
l 11 6
l 6 5
l 7 6
l 6 11
l 11 12
l 12 7
l 1 9
l 9 13
l 13 14
l 14 2
l 2 1
l 5 4
l 4 3
l 3 10
l 10 5
l 13 9
l 9 8
l 8 7
l 7 12
l 12 11
l 11 10
l 10 3
l 3 2
l 2 14
l 14 13
