v 0.0915729 -0.0189236 0.0163865
v 0.0893676 -0.0193869 0.0165017
v 0.0862698 -0.0215675 0.0222538
v 0.0862044 -0.0215511 0.0341624
v 0.0915617 -0.018996 0.0332646
v 0.0916887 -0.0184844 0.0248976
v 0.0916409 -0.0229102 0.0338889
v 0.0920922 -0.0230231 0.0257876
v 0.091796 -0.0211075 0.0249778
v 0.0918082 -0.0210613 0.0333186
v 0.0893293 -0.0223323 0.0137481
v 0.0876209 -0.0219052 0.0171763
v 0.0906448 -0.0226612 0.0144349
v 0.0915119 -0.022878 0.0183392
l 1 2
l 2 3
l 3 4
l 4 5
l 5 6
l 6 1
l 7 8
l 8 9
l 9 10
l 10 7
l 7 10
l 10 5
l 5 4
l 4 7
l 3 2
l 2 11
l 11 12
l 12 3
l 1 13
l 13 11
l 11 2
l 2 1
l 14 13
l 13 9
l 9 8
l 8 14
l 5 10
l 10 9
l 9 6
l 6 5
l 1 6
l 6 9
l 9 13
l 13 1
l 4 3
l 3 12
l 12 11
l 11 13
l 13 14
l 14 8
l 8 7
l 7 4
