solid 
 facet normal  1.000000e+00  0.000000e+00  0.000000e+00
   outer loop
     vertex  6.000000e-01 -2.500000e-02  0.000000e+00
     vertex  6.000000e-01  7.500000e-02  0.000000e+00
     vertex  6.000000e-01  7.500000e-02  1.000000e-01
   endloop
 endfacet
 facet normal  1.000000e+00  0.000000e+00  0.000000e+00
   outer loop
     vertex  6.000000e-01 -2.500000e-02  0.000000e+00
     vertex  6.000000e-01  7.500000e-02  1.000000e-01
     vertex  6.000000e-01 -2.500000e-02  1.000000e-01
   endloop
 endfacet
endsolid
